<?xml version="1.0" encoding="UTF-8"?>
<svg width="15px" height="16px" viewBox="0 0 15 16" version="1.1" xmlns="http://www.w3.org/2000/svg" xmlns:xlink="http://www.w3.org/1999/xlink">
    <!-- Generator: Sketch 64 (93537) - https://sketch.com -->
    <title>upload</title>
    <desc>Created with Sketch.</desc>
    <g id="Page-1" stroke="none" stroke-width="1" fill="none" fill-rule="evenodd">
        <g id="card" transform="translate(-549.000000, -2587.000000)" fill="#0091FE" fill-rule="nonzero">
            <g id="interface" transform="translate(549.000000, 2587.000000)">
                <path d="M2,11 L2,14 L13,14 L13,11 L15,11 L15,15 C15,15.553 14.553,16 14,16 L14,16 L1,16 C0.448,16 0,15.553 0,15 L0,15 L0,11 L2,11 Z M7.5,0 C7.644,0 7.781,0.063 7.876,0.171 L7.876,0.171 L11.376,4.171 C11.506,4.318 11.536,4.528 11.455,4.707 C11.374,4.886 11.196,5 11,5 L11,5 L9,5 L9,11.5 C9,11.776 8.776,12 8.5,12 L8.5,12 L6.5,12 C6.224,12 6,11.776 6,11.5 L6,11.5 L6,5 L4,5 C3.804,5 3.626,4.885 3.545,4.707 C3.463,4.528 3.495,4.319 3.624,4.171 L3.624,4.171 L7.124,0.171 C7.219,0.063 7.356,0 7.5,0 Z" id="upload"></path>
            </g>
        </g>
    </g>
</svg>